<svg width="61" height="60" viewBox="0 0 61 60" fill="none" xmlns="http://www.w3.org/2000/svg">
<path d="M20.61 33.3499L27.685 26.2749L10.135 8.74989C6.23496 12.6499 6.23496 18.9749 10.135 22.8999L20.61 33.3499ZM37.56 28.8249C41.385 30.5999 46.76 29.3499 50.735 25.3749C55.51 20.5999 56.435 13.7499 52.76 10.0749C49.11 6.42489 42.26 7.32489 37.46 12.0999C33.485 16.0749 32.235 21.4499 34.01 25.2749L9.60996 49.6749L13.135 53.1999L30.36 36.0249L47.56 53.2249L51.085 49.6999L33.885 32.4999L37.56 28.8249Z" fill="url(#paint0_linear)"/>
<defs>
<linearGradient id="paint0_linear" x1="-0.0273306" y1="10.3458" x2="56.1762" y2="56.0397" gradientUnits="userSpaceOnUse">
<stop stop-color="#FBCF33"/>
<stop offset="1" stop-color="#F53939"/>
</linearGradient>
</defs>
</svg>
