<svg width="73" height="32" viewBox="0 0 73 32" fill="none" xmlns="http://www.w3.org/2000/svg">
<path d="M7.84326 1.472C11.1017 1.472 13.5009 2.03733 15.0409 3.168C16.6031 4.29867 17.3843 6.016 17.3843 8.32C17.3843 9.36533 17.1722 10.2827 16.7482 11.072C16.3465 11.84 15.7997 12.5013 15.1078 13.056C14.4383 13.5893 13.7129 14.0267 12.9318 14.368L19.962 24.32H14.3378L8.64671 15.552H5.93506V24.32H0.880005V1.472H7.84326ZM7.47501 5.44H5.93506V11.616H7.57544C9.2493 11.616 10.4433 11.3493 11.1575 10.816C11.894 10.2827 12.2622 9.49333 12.2622 8.448C12.2622 7.36 11.8717 6.592 11.0905 6.144C10.3317 5.67467 9.12655 5.44 7.47501 5.44Z" fill="white"/>
<path d="M40.6896 6.848V24.32H36.8732L36.2037 22.08H35.9358C35.3556 22.976 34.5521 23.6267 33.5255 24.032C32.5212 24.4373 31.4499 24.64 30.3117 24.64C28.3477 24.64 26.7743 24.1387 25.5914 23.136C24.4085 22.112 23.8171 20.48 23.8171 18.24V6.848H28.8052V17.056C28.8052 18.2933 29.0395 19.232 29.5082 19.872C29.9769 20.512 30.7246 20.832 31.7512 20.832C33.2688 20.832 34.3066 20.3413 34.8646 19.36C35.4225 18.3573 35.7015 16.928 35.7015 15.072V6.848H40.6896Z" fill="white"/>
<path d="M44.6475 6.848H50.1043L53.5524 16.672C53.731 17.1413 53.8649 17.632 53.9542 18.144C54.0434 18.6347 54.1104 19.1573 54.155 19.712H54.2554C54.3224 19.1573 54.4117 18.6347 54.5233 18.144C54.6572 17.632 54.8022 17.1413 54.9585 16.672L58.3397 6.848H63.696L55.9628 26.56C55.2709 28.3733 54.2554 29.728 52.9164 30.624C51.5996 31.5413 50.0708 32 48.33 32C47.772 32 47.281 31.968 46.857 31.904C46.4553 31.8613 46.0982 31.808 45.7857 31.744V27.968C46.0312 28.0107 46.3214 28.0533 46.6561 28.096C47.0132 28.1387 47.3815 28.16 47.7609 28.16C48.8098 28.16 49.6356 27.8507 50.2382 27.232C50.8631 26.6347 51.3206 25.9093 51.6108 25.056L51.912 24.192L44.6475 6.848Z" fill="white"/>
<path d="M70.1684 0C70.9049 0 71.5409 0.170667 72.0766 0.512001C72.6122 0.832001 72.88 1.44 72.88 2.336C72.88 3.21067 72.6122 3.81867 72.0766 4.16C71.5409 4.50133 70.9049 4.672 70.1684 4.672C69.4095 4.672 68.7623 4.50133 68.2267 4.16C67.7134 3.81867 67.4567 3.21067 67.4567 2.336C67.4567 1.44 67.7134 0.832001 68.2267 0.512001C68.7623 0.170667 69.4095 0 70.1684 0ZM72.6457 6.848V24.32H67.6576V6.848H72.6457Z" fill="white"/>
</svg>
