<svg width="156" height="171" viewBox="0 0 156 171" fill="none" xmlns="http://www.w3.org/2000/svg">
<path d="M5.06812 2.9671C5.06812 4.34781 3.94883 5.4671 2.56812 5.4671C1.1874 5.4671 0.0681152 4.34781 0.0681152 2.9671C0.0681152 1.58639 1.1874 0.467102 2.56812 0.467102C3.94883 0.467102 5.06812 1.58639 5.06812 2.9671Z" fill="url(#paint0_linear)"/>
<path d="M20.0681 2.9671C20.0681 4.34781 18.9488 5.4671 17.5681 5.4671C16.1874 5.4671 15.0681 4.34781 15.0681 2.9671C15.0681 1.58639 16.1874 0.467102 17.5681 0.467102C18.9488 0.467102 20.0681 1.58639 20.0681 2.9671Z" fill="url(#paint1_linear)"/>
<path d="M35.0681 2.9671C35.0681 4.34781 33.9488 5.4671 32.5681 5.4671C31.1874 5.4671 30.0681 4.34781 30.0681 2.9671C30.0681 1.58639 31.1874 0.467102 32.5681 0.467102C33.9488 0.467102 35.0681 1.58639 35.0681 2.9671Z" fill="url(#paint2_linear)"/>
<path d="M50.0681 2.9671C50.0681 4.34781 48.9488 5.4671 47.5681 5.4671C46.1874 5.4671 45.0681 4.34781 45.0681 2.9671C45.0681 1.58639 46.1874 0.467102 47.5681 0.467102C48.9488 0.467102 50.0681 1.58639 50.0681 2.9671Z" fill="url(#paint3_linear)"/>
<path d="M65.0681 2.9671C65.0681 4.34781 63.9488 5.4671 62.5681 5.4671C61.1874 5.4671 60.0681 4.34781 60.0681 2.9671C60.0681 1.58639 61.1874 0.467102 62.5681 0.467102C63.9488 0.467102 65.0681 1.58639 65.0681 2.9671Z" fill="url(#paint4_linear)"/>
<path d="M80.0681 2.9671C80.0681 4.34781 78.9488 5.4671 77.5681 5.4671C76.1874 5.4671 75.0681 4.34781 75.0681 2.9671C75.0681 1.58639 76.1874 0.467102 77.5681 0.467102C78.9488 0.467102 80.0681 1.58639 80.0681 2.9671Z" fill="url(#paint5_linear)"/>
<path d="M95.0681 2.9671C95.0681 4.34781 93.9488 5.4671 92.5681 5.4671C91.1874 5.4671 90.0681 4.34781 90.0681 2.9671C90.0681 1.58639 91.1874 0.467102 92.5681 0.467102C93.9488 0.467102 95.0681 1.58639 95.0681 2.9671Z" fill="url(#paint6_linear)"/>
<path d="M110.068 2.9671C110.068 4.34781 108.949 5.4671 107.568 5.4671C106.187 5.4671 105.068 4.34781 105.068 2.9671C105.068 1.58639 106.187 0.467102 107.568 0.467102C108.949 0.467102 110.068 1.58639 110.068 2.9671Z" fill="url(#paint7_linear)"/>
<path d="M125.068 2.9671C125.068 4.34781 123.949 5.4671 122.568 5.4671C121.187 5.4671 120.068 4.34781 120.068 2.9671C120.068 1.58639 121.187 0.467102 122.568 0.467102C123.949 0.467102 125.068 1.58639 125.068 2.9671Z" fill="url(#paint8_linear)"/>
<path d="M140.068 2.9671C140.068 4.34781 138.949 5.4671 137.568 5.4671C136.187 5.4671 135.068 4.34781 135.068 2.9671C135.068 1.58639 136.187 0.467102 137.568 0.467102C138.949 0.467102 140.068 1.58639 140.068 2.9671Z" fill="url(#paint9_linear)"/>
<path d="M155.068 2.9671C155.068 4.34781 153.949 5.4671 152.568 5.4671C151.187 5.4671 150.068 4.34781 150.068 2.9671C150.068 1.58639 151.187 0.467102 152.568 0.467102C153.949 0.467102 155.068 1.58639 155.068 2.9671Z" fill="url(#paint10_linear)"/>
<path d="M5.06812 17.9671C5.06812 19.3478 3.94883 20.4671 2.56812 20.4671C1.1874 20.4671 0.0681152 19.3478 0.0681152 17.9671C0.0681152 16.5864 1.1874 15.4671 2.56812 15.4671C3.94883 15.4671 5.06812 16.5864 5.06812 17.9671Z" fill="url(#paint11_linear)"/>
<path d="M20.0681 17.9671C20.0681 19.3478 18.9488 20.4671 17.5681 20.4671C16.1874 20.4671 15.0681 19.3478 15.0681 17.9671C15.0681 16.5864 16.1874 15.4671 17.5681 15.4671C18.9488 15.4671 20.0681 16.5864 20.0681 17.9671Z" fill="url(#paint12_linear)"/>
<path d="M35.0681 17.9671C35.0681 19.3478 33.9488 20.4671 32.5681 20.4671C31.1874 20.4671 30.0681 19.3478 30.0681 17.9671C30.0681 16.5864 31.1874 15.4671 32.5681 15.4671C33.9488 15.4671 35.0681 16.5864 35.0681 17.9671Z" fill="url(#paint13_linear)"/>
<path d="M50.0681 17.9671C50.0681 19.3478 48.9488 20.4671 47.5681 20.4671C46.1874 20.4671 45.0681 19.3478 45.0681 17.9671C45.0681 16.5864 46.1874 15.4671 47.5681 15.4671C48.9488 15.4671 50.0681 16.5864 50.0681 17.9671Z" fill="url(#paint14_linear)"/>
<path d="M65.0681 17.9671C65.0681 19.3478 63.9488 20.4671 62.5681 20.4671C61.1874 20.4671 60.0681 19.3478 60.0681 17.9671C60.0681 16.5864 61.1874 15.4671 62.5681 15.4671C63.9488 15.4671 65.0681 16.5864 65.0681 17.9671Z" fill="url(#paint15_linear)"/>
<path d="M80.0681 17.9671C80.0681 19.3478 78.9488 20.4671 77.5681 20.4671C76.1874 20.4671 75.0681 19.3478 75.0681 17.9671C75.0681 16.5864 76.1874 15.4671 77.5681 15.4671C78.9488 15.4671 80.0681 16.5864 80.0681 17.9671Z" fill="url(#paint16_linear)"/>
<path d="M95.0681 17.9671C95.0681 19.3478 93.9488 20.4671 92.5681 20.4671C91.1874 20.4671 90.0681 19.3478 90.0681 17.9671C90.0681 16.5864 91.1874 15.4671 92.5681 15.4671C93.9488 15.4671 95.0681 16.5864 95.0681 17.9671Z" fill="url(#paint17_linear)"/>
<path d="M110.068 17.9671C110.068 19.3478 108.949 20.4671 107.568 20.4671C106.187 20.4671 105.068 19.3478 105.068 17.9671C105.068 16.5864 106.187 15.4671 107.568 15.4671C108.949 15.4671 110.068 16.5864 110.068 17.9671Z" fill="url(#paint18_linear)"/>
<path d="M125.068 17.9671C125.068 19.3478 123.949 20.4671 122.568 20.4671C121.187 20.4671 120.068 19.3478 120.068 17.9671C120.068 16.5864 121.187 15.4671 122.568 15.4671C123.949 15.4671 125.068 16.5864 125.068 17.9671Z" fill="url(#paint19_linear)"/>
<path d="M140.068 17.9671C140.068 19.3478 138.949 20.4671 137.568 20.4671C136.187 20.4671 135.068 19.3478 135.068 17.9671C135.068 16.5864 136.187 15.4671 137.568 15.4671C138.949 15.4671 140.068 16.5864 140.068 17.9671Z" fill="url(#paint20_linear)"/>
<path d="M155.068 17.9671C155.068 19.3478 153.949 20.4671 152.568 20.4671C151.187 20.4671 150.068 19.3478 150.068 17.9671C150.068 16.5864 151.187 15.4671 152.568 15.4671C153.949 15.4671 155.068 16.5864 155.068 17.9671Z" fill="url(#paint21_linear)"/>
<path d="M5.06812 32.9671C5.06812 34.3478 3.94883 35.4671 2.56812 35.4671C1.1874 35.4671 0.0681152 34.3478 0.0681152 32.9671C0.0681152 31.5864 1.1874 30.4671 2.56812 30.4671C3.94883 30.4671 5.06812 31.5864 5.06812 32.9671Z" fill="url(#paint22_linear)"/>
<path d="M20.0681 32.9671C20.0681 34.3478 18.9488 35.4671 17.5681 35.4671C16.1874 35.4671 15.0681 34.3478 15.0681 32.9671C15.0681 31.5864 16.1874 30.4671 17.5681 30.4671C18.9488 30.4671 20.0681 31.5864 20.0681 32.9671Z" fill="url(#paint23_linear)"/>
<path d="M35.0681 32.9671C35.0681 34.3478 33.9488 35.4671 32.5681 35.4671C31.1874 35.4671 30.0681 34.3478 30.0681 32.9671C30.0681 31.5864 31.1874 30.4671 32.5681 30.4671C33.9488 30.4671 35.0681 31.5864 35.0681 32.9671Z" fill="url(#paint24_linear)"/>
<path d="M50.0681 32.9671C50.0681 34.3478 48.9488 35.4671 47.5681 35.4671C46.1874 35.4671 45.0681 34.3478 45.0681 32.9671C45.0681 31.5864 46.1874 30.4671 47.5681 30.4671C48.9488 30.4671 50.0681 31.5864 50.0681 32.9671Z" fill="url(#paint25_linear)"/>
<path d="M65.0681 32.9671C65.0681 34.3478 63.9488 35.4671 62.5681 35.4671C61.1874 35.4671 60.0681 34.3478 60.0681 32.9671C60.0681 31.5864 61.1874 30.4671 62.5681 30.4671C63.9488 30.4671 65.0681 31.5864 65.0681 32.9671Z" fill="url(#paint26_linear)"/>
<path d="M80.0681 32.9671C80.0681 34.3478 78.9488 35.4671 77.5681 35.4671C76.1874 35.4671 75.0681 34.3478 75.0681 32.9671C75.0681 31.5864 76.1874 30.4671 77.5681 30.4671C78.9488 30.4671 80.0681 31.5864 80.0681 32.9671Z" fill="url(#paint27_linear)"/>
<path d="M95.0681 32.9671C95.0681 34.3478 93.9488 35.4671 92.5681 35.4671C91.1874 35.4671 90.0681 34.3478 90.0681 32.9671C90.0681 31.5864 91.1874 30.4671 92.5681 30.4671C93.9488 30.4671 95.0681 31.5864 95.0681 32.9671Z" fill="url(#paint28_linear)"/>
<path d="M110.068 32.9671C110.068 34.3478 108.949 35.4671 107.568 35.4671C106.187 35.4671 105.068 34.3478 105.068 32.9671C105.068 31.5864 106.187 30.4671 107.568 30.4671C108.949 30.4671 110.068 31.5864 110.068 32.9671Z" fill="url(#paint29_linear)"/>
<path d="M125.068 32.9671C125.068 34.3478 123.949 35.4671 122.568 35.4671C121.187 35.4671 120.068 34.3478 120.068 32.9671C120.068 31.5864 121.187 30.4671 122.568 30.4671C123.949 30.4671 125.068 31.5864 125.068 32.9671Z" fill="url(#paint30_linear)"/>
<path d="M140.068 32.9671C140.068 34.3478 138.949 35.4671 137.568 35.4671C136.187 35.4671 135.068 34.3478 135.068 32.9671C135.068 31.5864 136.187 30.4671 137.568 30.4671C138.949 30.4671 140.068 31.5864 140.068 32.9671Z" fill="url(#paint31_linear)"/>
<path d="M155.068 32.9671C155.068 34.3478 153.949 35.4671 152.568 35.4671C151.187 35.4671 150.068 34.3478 150.068 32.9671C150.068 31.5864 151.187 30.4671 152.568 30.4671C153.949 30.4671 155.068 31.5864 155.068 32.9671Z" fill="url(#paint32_linear)"/>
<path d="M5.06812 47.9671C5.06812 49.3478 3.94883 50.4671 2.56812 50.4671C1.1874 50.4671 0.0681152 49.3478 0.0681152 47.9671C0.0681152 46.5864 1.1874 45.4671 2.56812 45.4671C3.94883 45.4671 5.06812 46.5864 5.06812 47.9671Z" fill="url(#paint33_linear)"/>
<path d="M20.0681 47.9671C20.0681 49.3478 18.9488 50.4671 17.5681 50.4671C16.1874 50.4671 15.0681 49.3478 15.0681 47.9671C15.0681 46.5864 16.1874 45.4671 17.5681 45.4671C18.9488 45.4671 20.0681 46.5864 20.0681 47.9671Z" fill="url(#paint34_linear)"/>
<path d="M35.0681 47.9671C35.0681 49.3478 33.9488 50.4671 32.5681 50.4671C31.1874 50.4671 30.0681 49.3478 30.0681 47.9671C30.0681 46.5864 31.1874 45.4671 32.5681 45.4671C33.9488 45.4671 35.0681 46.5864 35.0681 47.9671Z" fill="url(#paint35_linear)"/>
<path d="M50.0681 47.9671C50.0681 49.3478 48.9488 50.4671 47.5681 50.4671C46.1874 50.4671 45.0681 49.3478 45.0681 47.9671C45.0681 46.5864 46.1874 45.4671 47.5681 45.4671C48.9488 45.4671 50.0681 46.5864 50.0681 47.9671Z" fill="url(#paint36_linear)"/>
<path d="M65.0681 47.9671C65.0681 49.3478 63.9488 50.4671 62.5681 50.4671C61.1874 50.4671 60.0681 49.3478 60.0681 47.9671C60.0681 46.5864 61.1874 45.4671 62.5681 45.4671C63.9488 45.4671 65.0681 46.5864 65.0681 47.9671Z" fill="url(#paint37_linear)"/>
<path d="M80.0681 47.9671C80.0681 49.3478 78.9488 50.4671 77.5681 50.4671C76.1874 50.4671 75.0681 49.3478 75.0681 47.9671C75.0681 46.5864 76.1874 45.4671 77.5681 45.4671C78.9488 45.4671 80.0681 46.5864 80.0681 47.9671Z" fill="url(#paint38_linear)"/>
<path d="M95.0681 47.9671C95.0681 49.3478 93.9488 50.4671 92.5681 50.4671C91.1874 50.4671 90.0681 49.3478 90.0681 47.9671C90.0681 46.5864 91.1874 45.4671 92.5681 45.4671C93.9488 45.4671 95.0681 46.5864 95.0681 47.9671Z" fill="url(#paint39_linear)"/>
<path d="M110.068 47.9671C110.068 49.3478 108.949 50.4671 107.568 50.4671C106.187 50.4671 105.068 49.3478 105.068 47.9671C105.068 46.5864 106.187 45.4671 107.568 45.4671C108.949 45.4671 110.068 46.5864 110.068 47.9671Z" fill="url(#paint40_linear)"/>
<path d="M125.068 47.9671C125.068 49.3478 123.949 50.4671 122.568 50.4671C121.187 50.4671 120.068 49.3478 120.068 47.9671C120.068 46.5864 121.187 45.4671 122.568 45.4671C123.949 45.4671 125.068 46.5864 125.068 47.9671Z" fill="url(#paint41_linear)"/>
<path d="M140.068 47.9671C140.068 49.3478 138.949 50.4671 137.568 50.4671C136.187 50.4671 135.068 49.3478 135.068 47.9671C135.068 46.5864 136.187 45.4671 137.568 45.4671C138.949 45.4671 140.068 46.5864 140.068 47.9671Z" fill="url(#paint42_linear)"/>
<path d="M155.068 47.9671C155.068 49.3478 153.949 50.4671 152.568 50.4671C151.187 50.4671 150.068 49.3478 150.068 47.9671C150.068 46.5864 151.187 45.4671 152.568 45.4671C153.949 45.4671 155.068 46.5864 155.068 47.9671Z" fill="url(#paint43_linear)"/>
<path d="M5.06812 62.9671C5.06812 64.3478 3.94883 65.4671 2.56812 65.4671C1.1874 65.4671 0.0681152 64.3478 0.0681152 62.9671C0.0681152 61.5864 1.1874 60.4671 2.56812 60.4671C3.94883 60.4671 5.06812 61.5864 5.06812 62.9671Z" fill="url(#paint44_linear)"/>
<path d="M20.0681 62.9671C20.0681 64.3478 18.9488 65.4671 17.5681 65.4671C16.1874 65.4671 15.0681 64.3478 15.0681 62.9671C15.0681 61.5864 16.1874 60.4671 17.5681 60.4671C18.9488 60.4671 20.0681 61.5864 20.0681 62.9671Z" fill="url(#paint45_linear)"/>
<path d="M35.0681 62.9671C35.0681 64.3478 33.9488 65.4671 32.5681 65.4671C31.1874 65.4671 30.0681 64.3478 30.0681 62.9671C30.0681 61.5864 31.1874 60.4671 32.5681 60.4671C33.9488 60.4671 35.0681 61.5864 35.0681 62.9671Z" fill="url(#paint46_linear)"/>
<path d="M50.0681 62.9671C50.0681 64.3478 48.9488 65.4671 47.5681 65.4671C46.1874 65.4671 45.0681 64.3478 45.0681 62.9671C45.0681 61.5864 46.1874 60.4671 47.5681 60.4671C48.9488 60.4671 50.0681 61.5864 50.0681 62.9671Z" fill="url(#paint47_linear)"/>
<path d="M65.0681 62.9671C65.0681 64.3478 63.9488 65.4671 62.5681 65.4671C61.1874 65.4671 60.0681 64.3478 60.0681 62.9671C60.0681 61.5864 61.1874 60.4671 62.5681 60.4671C63.9488 60.4671 65.0681 61.5864 65.0681 62.9671Z" fill="url(#paint48_linear)"/>
<path d="M80.0681 62.9671C80.0681 64.3478 78.9488 65.4671 77.5681 65.4671C76.1874 65.4671 75.0681 64.3478 75.0681 62.9671C75.0681 61.5864 76.1874 60.4671 77.5681 60.4671C78.9488 60.4671 80.0681 61.5864 80.0681 62.9671Z" fill="url(#paint49_linear)"/>
<path d="M95.0681 62.9671C95.0681 64.3478 93.9488 65.4671 92.5681 65.4671C91.1874 65.4671 90.0681 64.3478 90.0681 62.9671C90.0681 61.5864 91.1874 60.4671 92.5681 60.4671C93.9488 60.4671 95.0681 61.5864 95.0681 62.9671Z" fill="url(#paint50_linear)"/>
<path d="M110.068 62.9671C110.068 64.3478 108.949 65.4671 107.568 65.4671C106.187 65.4671 105.068 64.3478 105.068 62.9671C105.068 61.5864 106.187 60.4671 107.568 60.4671C108.949 60.4671 110.068 61.5864 110.068 62.9671Z" fill="url(#paint51_linear)"/>
<path d="M125.068 62.9671C125.068 64.3478 123.949 65.4671 122.568 65.4671C121.187 65.4671 120.068 64.3478 120.068 62.9671C120.068 61.5864 121.187 60.4671 122.568 60.4671C123.949 60.4671 125.068 61.5864 125.068 62.9671Z" fill="url(#paint52_linear)"/>
<path d="M140.068 62.9671C140.068 64.3478 138.949 65.4671 137.568 65.4671C136.187 65.4671 135.068 64.3478 135.068 62.9671C135.068 61.5864 136.187 60.4671 137.568 60.4671C138.949 60.4671 140.068 61.5864 140.068 62.9671Z" fill="url(#paint53_linear)"/>
<path d="M155.068 62.9671C155.068 64.3478 153.949 65.4671 152.568 65.4671C151.187 65.4671 150.068 64.3478 150.068 62.9671C150.068 61.5864 151.187 60.4671 152.568 60.4671C153.949 60.4671 155.068 61.5864 155.068 62.9671Z" fill="url(#paint54_linear)"/>
<path d="M5.06812 77.9671C5.06812 79.3478 3.94883 80.4671 2.56812 80.4671C1.1874 80.4671 0.0681152 79.3478 0.0681152 77.9671C0.0681152 76.5864 1.1874 75.4671 2.56812 75.4671C3.94883 75.4671 5.06812 76.5864 5.06812 77.9671Z" fill="url(#paint55_linear)"/>
<path d="M20.0681 77.9671C20.0681 79.3478 18.9488 80.4671 17.5681 80.4671C16.1874 80.4671 15.0681 79.3478 15.0681 77.9671C15.0681 76.5864 16.1874 75.4671 17.5681 75.4671C18.9488 75.4671 20.0681 76.5864 20.0681 77.9671Z" fill="url(#paint56_linear)"/>
<path d="M35.0681 77.9671C35.0681 79.3478 33.9488 80.4671 32.5681 80.4671C31.1874 80.4671 30.0681 79.3478 30.0681 77.9671C30.0681 76.5864 31.1874 75.4671 32.5681 75.4671C33.9488 75.4671 35.0681 76.5864 35.0681 77.9671Z" fill="url(#paint57_linear)"/>
<path d="M50.0681 77.9671C50.0681 79.3478 48.9488 80.4671 47.5681 80.4671C46.1874 80.4671 45.0681 79.3478 45.0681 77.9671C45.0681 76.5864 46.1874 75.4671 47.5681 75.4671C48.9488 75.4671 50.0681 76.5864 50.0681 77.9671Z" fill="url(#paint58_linear)"/>
<path d="M65.0681 77.9671C65.0681 79.3478 63.9488 80.4671 62.5681 80.4671C61.1874 80.4671 60.0681 79.3478 60.0681 77.9671C60.0681 76.5864 61.1874 75.4671 62.5681 75.4671C63.9488 75.4671 65.0681 76.5864 65.0681 77.9671Z" fill="url(#paint59_linear)"/>
<path d="M80.0681 77.9671C80.0681 79.3478 78.9488 80.4671 77.5681 80.4671C76.1874 80.4671 75.0681 79.3478 75.0681 77.9671C75.0681 76.5864 76.1874 75.4671 77.5681 75.4671C78.9488 75.4671 80.0681 76.5864 80.0681 77.9671Z" fill="url(#paint60_linear)"/>
<path d="M95.0681 77.9671C95.0681 79.3478 93.9488 80.4671 92.5681 80.4671C91.1874 80.4671 90.0681 79.3478 90.0681 77.9671C90.0681 76.5864 91.1874 75.4671 92.5681 75.4671C93.9488 75.4671 95.0681 76.5864 95.0681 77.9671Z" fill="url(#paint61_linear)"/>
<path d="M110.068 77.9671C110.068 79.3478 108.949 80.4671 107.568 80.4671C106.187 80.4671 105.068 79.3478 105.068 77.9671C105.068 76.5864 106.187 75.4671 107.568 75.4671C108.949 75.4671 110.068 76.5864 110.068 77.9671Z" fill="url(#paint62_linear)"/>
<path d="M125.068 77.9671C125.068 79.3478 123.949 80.4671 122.568 80.4671C121.187 80.4671 120.068 79.3478 120.068 77.9671C120.068 76.5864 121.187 75.4671 122.568 75.4671C123.949 75.4671 125.068 76.5864 125.068 77.9671Z" fill="url(#paint63_linear)"/>
<path d="M140.068 77.9671C140.068 79.3478 138.949 80.4671 137.568 80.4671C136.187 80.4671 135.068 79.3478 135.068 77.9671C135.068 76.5864 136.187 75.4671 137.568 75.4671C138.949 75.4671 140.068 76.5864 140.068 77.9671Z" fill="url(#paint64_linear)"/>
<path d="M155.068 77.9671C155.068 79.3478 153.949 80.4671 152.568 80.4671C151.187 80.4671 150.068 79.3478 150.068 77.9671C150.068 76.5864 151.187 75.4671 152.568 75.4671C153.949 75.4671 155.068 76.5864 155.068 77.9671Z" fill="url(#paint65_linear)"/>
<path d="M5.06812 92.9671C5.06812 94.3478 3.94883 95.4671 2.56812 95.4671C1.1874 95.4671 0.0681152 94.3478 0.0681152 92.9671C0.0681152 91.5864 1.1874 90.4671 2.56812 90.4671C3.94883 90.4671 5.06812 91.5864 5.06812 92.9671Z" fill="url(#paint66_linear)"/>
<path d="M20.0681 92.9671C20.0681 94.3478 18.9488 95.4671 17.5681 95.4671C16.1874 95.4671 15.0681 94.3478 15.0681 92.9671C15.0681 91.5864 16.1874 90.4671 17.5681 90.4671C18.9488 90.4671 20.0681 91.5864 20.0681 92.9671Z" fill="url(#paint67_linear)"/>
<path d="M35.0681 92.9671C35.0681 94.3478 33.9488 95.4671 32.5681 95.4671C31.1874 95.4671 30.0681 94.3478 30.0681 92.9671C30.0681 91.5864 31.1874 90.4671 32.5681 90.4671C33.9488 90.4671 35.0681 91.5864 35.0681 92.9671Z" fill="url(#paint68_linear)"/>
<path d="M50.0681 92.9671C50.0681 94.3478 48.9488 95.4671 47.5681 95.4671C46.1874 95.4671 45.0681 94.3478 45.0681 92.9671C45.0681 91.5864 46.1874 90.4671 47.5681 90.4671C48.9488 90.4671 50.0681 91.5864 50.0681 92.9671Z" fill="url(#paint69_linear)"/>
<path d="M65.0681 92.9671C65.0681 94.3478 63.9488 95.4671 62.5681 95.4671C61.1874 95.4671 60.0681 94.3478 60.0681 92.9671C60.0681 91.5864 61.1874 90.4671 62.5681 90.4671C63.9488 90.4671 65.0681 91.5864 65.0681 92.9671Z" fill="url(#paint70_linear)"/>
<path d="M80.0681 92.9671C80.0681 94.3478 78.9488 95.4671 77.5681 95.4671C76.1874 95.4671 75.0681 94.3478 75.0681 92.9671C75.0681 91.5864 76.1874 90.4671 77.5681 90.4671C78.9488 90.4671 80.0681 91.5864 80.0681 92.9671Z" fill="url(#paint71_linear)"/>
<path d="M95.0681 92.9671C95.0681 94.3478 93.9488 95.4671 92.5681 95.4671C91.1874 95.4671 90.0681 94.3478 90.0681 92.9671C90.0681 91.5864 91.1874 90.4671 92.5681 90.4671C93.9488 90.4671 95.0681 91.5864 95.0681 92.9671Z" fill="url(#paint72_linear)"/>
<path d="M110.068 92.9671C110.068 94.3478 108.949 95.4671 107.568 95.4671C106.187 95.4671 105.068 94.3478 105.068 92.9671C105.068 91.5864 106.187 90.4671 107.568 90.4671C108.949 90.4671 110.068 91.5864 110.068 92.9671Z" fill="url(#paint73_linear)"/>
<path d="M125.068 92.9671C125.068 94.3478 123.949 95.4671 122.568 95.4671C121.187 95.4671 120.068 94.3478 120.068 92.9671C120.068 91.5864 121.187 90.4671 122.568 90.4671C123.949 90.4671 125.068 91.5864 125.068 92.9671Z" fill="url(#paint74_linear)"/>
<path d="M140.068 92.9671C140.068 94.3478 138.949 95.4671 137.568 95.4671C136.187 95.4671 135.068 94.3478 135.068 92.9671C135.068 91.5864 136.187 90.4671 137.568 90.4671C138.949 90.4671 140.068 91.5864 140.068 92.9671Z" fill="url(#paint75_linear)"/>
<path d="M155.068 92.9671C155.068 94.3478 153.949 95.4671 152.568 95.4671C151.187 95.4671 150.068 94.3478 150.068 92.9671C150.068 91.5864 151.187 90.4671 152.568 90.4671C153.949 90.4671 155.068 91.5864 155.068 92.9671Z" fill="url(#paint76_linear)"/>
<path d="M5.06812 107.967C5.06812 109.348 3.94883 110.467 2.56812 110.467C1.1874 110.467 0.0681152 109.348 0.0681152 107.967C0.0681152 106.586 1.1874 105.467 2.56812 105.467C3.94883 105.467 5.06812 106.586 5.06812 107.967Z" fill="url(#paint77_linear)"/>
<path d="M20.0681 107.967C20.0681 109.348 18.9488 110.467 17.5681 110.467C16.1874 110.467 15.0681 109.348 15.0681 107.967C15.0681 106.586 16.1874 105.467 17.5681 105.467C18.9488 105.467 20.0681 106.586 20.0681 107.967Z" fill="url(#paint78_linear)"/>
<path d="M35.0681 107.967C35.0681 109.348 33.9488 110.467 32.5681 110.467C31.1874 110.467 30.0681 109.348 30.0681 107.967C30.0681 106.586 31.1874 105.467 32.5681 105.467C33.9488 105.467 35.0681 106.586 35.0681 107.967Z" fill="url(#paint79_linear)"/>
<path d="M50.0681 107.967C50.0681 109.348 48.9488 110.467 47.5681 110.467C46.1874 110.467 45.0681 109.348 45.0681 107.967C45.0681 106.586 46.1874 105.467 47.5681 105.467C48.9488 105.467 50.0681 106.586 50.0681 107.967Z" fill="url(#paint80_linear)"/>
<path d="M65.0681 107.967C65.0681 109.348 63.9488 110.467 62.5681 110.467C61.1874 110.467 60.0681 109.348 60.0681 107.967C60.0681 106.586 61.1874 105.467 62.5681 105.467C63.9488 105.467 65.0681 106.586 65.0681 107.967Z" fill="url(#paint81_linear)"/>
<path d="M80.0681 107.967C80.0681 109.348 78.9488 110.467 77.5681 110.467C76.1874 110.467 75.0681 109.348 75.0681 107.967C75.0681 106.586 76.1874 105.467 77.5681 105.467C78.9488 105.467 80.0681 106.586 80.0681 107.967Z" fill="url(#paint82_linear)"/>
<path d="M95.0681 107.967C95.0681 109.348 93.9488 110.467 92.5681 110.467C91.1874 110.467 90.0681 109.348 90.0681 107.967C90.0681 106.586 91.1874 105.467 92.5681 105.467C93.9488 105.467 95.0681 106.586 95.0681 107.967Z" fill="url(#paint83_linear)"/>
<path d="M110.068 107.967C110.068 109.348 108.949 110.467 107.568 110.467C106.187 110.467 105.068 109.348 105.068 107.967C105.068 106.586 106.187 105.467 107.568 105.467C108.949 105.467 110.068 106.586 110.068 107.967Z" fill="url(#paint84_linear)"/>
<path d="M125.068 107.967C125.068 109.348 123.949 110.467 122.568 110.467C121.187 110.467 120.068 109.348 120.068 107.967C120.068 106.586 121.187 105.467 122.568 105.467C123.949 105.467 125.068 106.586 125.068 107.967Z" fill="url(#paint85_linear)"/>
<path d="M140.068 107.967C140.068 109.348 138.949 110.467 137.568 110.467C136.187 110.467 135.068 109.348 135.068 107.967C135.068 106.586 136.187 105.467 137.568 105.467C138.949 105.467 140.068 106.586 140.068 107.967Z" fill="url(#paint86_linear)"/>
<path d="M155.068 107.967C155.068 109.348 153.949 110.467 152.568 110.467C151.187 110.467 150.068 109.348 150.068 107.967C150.068 106.586 151.187 105.467 152.568 105.467C153.949 105.467 155.068 106.586 155.068 107.967Z" fill="url(#paint87_linear)"/>
<path d="M5.06812 122.967C5.06812 124.348 3.94883 125.467 2.56812 125.467C1.1874 125.467 0.0681152 124.348 0.0681152 122.967C0.0681152 121.586 1.1874 120.467 2.56812 120.467C3.94883 120.467 5.06812 121.586 5.06812 122.967Z" fill="url(#paint88_linear)"/>
<path d="M20.0681 122.967C20.0681 124.348 18.9488 125.467 17.5681 125.467C16.1874 125.467 15.0681 124.348 15.0681 122.967C15.0681 121.586 16.1874 120.467 17.5681 120.467C18.9488 120.467 20.0681 121.586 20.0681 122.967Z" fill="url(#paint89_linear)"/>
<path d="M35.0681 122.967C35.0681 124.348 33.9488 125.467 32.5681 125.467C31.1874 125.467 30.0681 124.348 30.0681 122.967C30.0681 121.586 31.1874 120.467 32.5681 120.467C33.9488 120.467 35.0681 121.586 35.0681 122.967Z" fill="url(#paint90_linear)"/>
<path d="M50.0681 122.967C50.0681 124.348 48.9488 125.467 47.5681 125.467C46.1874 125.467 45.0681 124.348 45.0681 122.967C45.0681 121.586 46.1874 120.467 47.5681 120.467C48.9488 120.467 50.0681 121.586 50.0681 122.967Z" fill="url(#paint91_linear)"/>
<path d="M65.0681 122.967C65.0681 124.348 63.9488 125.467 62.5681 125.467C61.1874 125.467 60.0681 124.348 60.0681 122.967C60.0681 121.586 61.1874 120.467 62.5681 120.467C63.9488 120.467 65.0681 121.586 65.0681 122.967Z" fill="url(#paint92_linear)"/>
<path d="M80.0681 122.967C80.0681 124.348 78.9488 125.467 77.5681 125.467C76.1874 125.467 75.0681 124.348 75.0681 122.967C75.0681 121.586 76.1874 120.467 77.5681 120.467C78.9488 120.467 80.0681 121.586 80.0681 122.967Z" fill="url(#paint93_linear)"/>
<path d="M95.0681 122.967C95.0681 124.348 93.9488 125.467 92.5681 125.467C91.1874 125.467 90.0681 124.348 90.0681 122.967C90.0681 121.586 91.1874 120.467 92.5681 120.467C93.9488 120.467 95.0681 121.586 95.0681 122.967Z" fill="url(#paint94_linear)"/>
<path d="M110.068 122.967C110.068 124.348 108.949 125.467 107.568 125.467C106.187 125.467 105.068 124.348 105.068 122.967C105.068 121.586 106.187 120.467 107.568 120.467C108.949 120.467 110.068 121.586 110.068 122.967Z" fill="url(#paint95_linear)"/>
<path d="M125.068 122.967C125.068 124.348 123.949 125.467 122.568 125.467C121.187 125.467 120.068 124.348 120.068 122.967C120.068 121.586 121.187 120.467 122.568 120.467C123.949 120.467 125.068 121.586 125.068 122.967Z" fill="url(#paint96_linear)"/>
<path d="M140.068 122.967C140.068 124.348 138.949 125.467 137.568 125.467C136.187 125.467 135.068 124.348 135.068 122.967C135.068 121.586 136.187 120.467 137.568 120.467C138.949 120.467 140.068 121.586 140.068 122.967Z" fill="url(#paint97_linear)"/>
<path d="M155.068 122.967C155.068 124.348 153.949 125.467 152.568 125.467C151.187 125.467 150.068 124.348 150.068 122.967C150.068 121.586 151.187 120.467 152.568 120.467C153.949 120.467 155.068 121.586 155.068 122.967Z" fill="url(#paint98_linear)"/>
<path d="M5.06812 137.967C5.06812 139.348 3.94883 140.467 2.56812 140.467C1.1874 140.467 0.0681152 139.348 0.0681152 137.967C0.0681152 136.586 1.1874 135.467 2.56812 135.467C3.94883 135.467 5.06812 136.586 5.06812 137.967Z" fill="url(#paint99_linear)"/>
<path d="M20.0681 137.967C20.0681 139.348 18.9488 140.467 17.5681 140.467C16.1874 140.467 15.0681 139.348 15.0681 137.967C15.0681 136.586 16.1874 135.467 17.5681 135.467C18.9488 135.467 20.0681 136.586 20.0681 137.967Z" fill="url(#paint100_linear)"/>
<path d="M35.0681 137.967C35.0681 139.348 33.9488 140.467 32.5681 140.467C31.1874 140.467 30.0681 139.348 30.0681 137.967C30.0681 136.586 31.1874 135.467 32.5681 135.467C33.9488 135.467 35.0681 136.586 35.0681 137.967Z" fill="url(#paint101_linear)"/>
<path d="M50.0681 137.967C50.0681 139.348 48.9488 140.467 47.5681 140.467C46.1874 140.467 45.0681 139.348 45.0681 137.967C45.0681 136.586 46.1874 135.467 47.5681 135.467C48.9488 135.467 50.0681 136.586 50.0681 137.967Z" fill="url(#paint102_linear)"/>
<path d="M65.0681 137.967C65.0681 139.348 63.9488 140.467 62.5681 140.467C61.1874 140.467 60.0681 139.348 60.0681 137.967C60.0681 136.586 61.1874 135.467 62.5681 135.467C63.9488 135.467 65.0681 136.586 65.0681 137.967Z" fill="url(#paint103_linear)"/>
<path d="M80.0681 137.967C80.0681 139.348 78.9488 140.467 77.5681 140.467C76.1874 140.467 75.0681 139.348 75.0681 137.967C75.0681 136.586 76.1874 135.467 77.5681 135.467C78.9488 135.467 80.0681 136.586 80.0681 137.967Z" fill="url(#paint104_linear)"/>
<path d="M95.0681 137.967C95.0681 139.348 93.9488 140.467 92.5681 140.467C91.1874 140.467 90.0681 139.348 90.0681 137.967C90.0681 136.586 91.1874 135.467 92.5681 135.467C93.9488 135.467 95.0681 136.586 95.0681 137.967Z" fill="url(#paint105_linear)"/>
<path d="M110.068 137.967C110.068 139.348 108.949 140.467 107.568 140.467C106.187 140.467 105.068 139.348 105.068 137.967C105.068 136.586 106.187 135.467 107.568 135.467C108.949 135.467 110.068 136.586 110.068 137.967Z" fill="url(#paint106_linear)"/>
<path d="M125.068 137.967C125.068 139.348 123.949 140.467 122.568 140.467C121.187 140.467 120.068 139.348 120.068 137.967C120.068 136.586 121.187 135.467 122.568 135.467C123.949 135.467 125.068 136.586 125.068 137.967Z" fill="url(#paint107_linear)"/>
<path d="M140.068 137.967C140.068 139.348 138.949 140.467 137.568 140.467C136.187 140.467 135.068 139.348 135.068 137.967C135.068 136.586 136.187 135.467 137.568 135.467C138.949 135.467 140.068 136.586 140.068 137.967Z" fill="url(#paint108_linear)"/>
<path d="M155.068 137.967C155.068 139.348 153.949 140.467 152.568 140.467C151.187 140.467 150.068 139.348 150.068 137.967C150.068 136.586 151.187 135.467 152.568 135.467C153.949 135.467 155.068 136.586 155.068 137.967Z" fill="url(#paint109_linear)"/>
<path d="M5.06812 152.967C5.06812 154.348 3.94883 155.467 2.56812 155.467C1.1874 155.467 0.0681152 154.348 0.0681152 152.967C0.0681152 151.586 1.1874 150.467 2.56812 150.467C3.94883 150.467 5.06812 151.586 5.06812 152.967Z" fill="url(#paint110_linear)"/>
<path d="M20.0681 152.967C20.0681 154.348 18.9488 155.467 17.5681 155.467C16.1874 155.467 15.0681 154.348 15.0681 152.967C15.0681 151.586 16.1874 150.467 17.5681 150.467C18.9488 150.467 20.0681 151.586 20.0681 152.967Z" fill="url(#paint111_linear)"/>
<path d="M35.0681 152.967C35.0681 154.348 33.9488 155.467 32.5681 155.467C31.1874 155.467 30.0681 154.348 30.0681 152.967C30.0681 151.586 31.1874 150.467 32.5681 150.467C33.9488 150.467 35.0681 151.586 35.0681 152.967Z" fill="url(#paint112_linear)"/>
<path d="M50.0681 152.967C50.0681 154.348 48.9488 155.467 47.5681 155.467C46.1874 155.467 45.0681 154.348 45.0681 152.967C45.0681 151.586 46.1874 150.467 47.5681 150.467C48.9488 150.467 50.0681 151.586 50.0681 152.967Z" fill="url(#paint113_linear)"/>
<path d="M65.0681 152.967C65.0681 154.348 63.9488 155.467 62.5681 155.467C61.1874 155.467 60.0681 154.348 60.0681 152.967C60.0681 151.586 61.1874 150.467 62.5681 150.467C63.9488 150.467 65.0681 151.586 65.0681 152.967Z" fill="url(#paint114_linear)"/>
<path d="M80.0681 152.967C80.0681 154.348 78.9488 155.467 77.5681 155.467C76.1874 155.467 75.0681 154.348 75.0681 152.967C75.0681 151.586 76.1874 150.467 77.5681 150.467C78.9488 150.467 80.0681 151.586 80.0681 152.967Z" fill="url(#paint115_linear)"/>
<path d="M95.0681 152.967C95.0681 154.348 93.9488 155.467 92.5681 155.467C91.1874 155.467 90.0681 154.348 90.0681 152.967C90.0681 151.586 91.1874 150.467 92.5681 150.467C93.9488 150.467 95.0681 151.586 95.0681 152.967Z" fill="url(#paint116_linear)"/>
<path d="M110.068 152.967C110.068 154.348 108.949 155.467 107.568 155.467C106.187 155.467 105.068 154.348 105.068 152.967C105.068 151.586 106.187 150.467 107.568 150.467C108.949 150.467 110.068 151.586 110.068 152.967Z" fill="url(#paint117_linear)"/>
<path d="M125.068 152.967C125.068 154.348 123.949 155.467 122.568 155.467C121.187 155.467 120.068 154.348 120.068 152.967C120.068 151.586 121.187 150.467 122.568 150.467C123.949 150.467 125.068 151.586 125.068 152.967Z" fill="url(#paint118_linear)"/>
<path d="M140.068 152.967C140.068 154.348 138.949 155.467 137.568 155.467C136.187 155.467 135.068 154.348 135.068 152.967C135.068 151.586 136.187 150.467 137.568 150.467C138.949 150.467 140.068 151.586 140.068 152.967Z" fill="url(#paint119_linear)"/>
<path d="M155.068 152.967C155.068 154.348 153.949 155.467 152.568 155.467C151.187 155.467 150.068 154.348 150.068 152.967C150.068 151.586 151.187 150.467 152.568 150.467C153.949 150.467 155.068 151.586 155.068 152.967Z" fill="url(#paint120_linear)"/>
<path d="M5.06812 167.967C5.06812 169.348 3.94883 170.467 2.56812 170.467C1.1874 170.467 0.0681152 169.348 0.0681152 167.967C0.0681152 166.586 1.1874 165.467 2.56812 165.467C3.94883 165.467 5.06812 166.586 5.06812 167.967Z" fill="url(#paint121_linear)"/>
<path d="M20.0681 167.967C20.0681 169.348 18.9488 170.467 17.5681 170.467C16.1874 170.467 15.0681 169.348 15.0681 167.967C15.0681 166.586 16.1874 165.467 17.5681 165.467C18.9488 165.467 20.0681 166.586 20.0681 167.967Z" fill="url(#paint122_linear)"/>
<path d="M35.0681 167.967C35.0681 169.348 33.9488 170.467 32.5681 170.467C31.1874 170.467 30.0681 169.348 30.0681 167.967C30.0681 166.586 31.1874 165.467 32.5681 165.467C33.9488 165.467 35.0681 166.586 35.0681 167.967Z" fill="url(#paint123_linear)"/>
<path d="M50.0681 167.967C50.0681 169.348 48.9488 170.467 47.5681 170.467C46.1874 170.467 45.0681 169.348 45.0681 167.967C45.0681 166.586 46.1874 165.467 47.5681 165.467C48.9488 165.467 50.0681 166.586 50.0681 167.967Z" fill="url(#paint124_linear)"/>
<path d="M65.0681 167.967C65.0681 169.348 63.9488 170.467 62.5681 170.467C61.1874 170.467 60.0681 169.348 60.0681 167.967C60.0681 166.586 61.1874 165.467 62.5681 165.467C63.9488 165.467 65.0681 166.586 65.0681 167.967Z" fill="url(#paint125_linear)"/>
<path d="M80.0681 167.967C80.0681 169.348 78.9488 170.467 77.5681 170.467C76.1874 170.467 75.0681 169.348 75.0681 167.967C75.0681 166.586 76.1874 165.467 77.5681 165.467C78.9488 165.467 80.0681 166.586 80.0681 167.967Z" fill="url(#paint126_linear)"/>
<path d="M95.0681 167.967C95.0681 169.348 93.9488 170.467 92.5681 170.467C91.1874 170.467 90.0681 169.348 90.0681 167.967C90.0681 166.586 91.1874 165.467 92.5681 165.467C93.9488 165.467 95.0681 166.586 95.0681 167.967Z" fill="url(#paint127_linear)"/>
<path d="M110.068 167.967C110.068 169.348 108.949 170.467 107.568 170.467C106.187 170.467 105.068 169.348 105.068 167.967C105.068 166.586 106.187 165.467 107.568 165.467C108.949 165.467 110.068 166.586 110.068 167.967Z" fill="url(#paint128_linear)"/>
<path d="M125.068 167.967C125.068 169.348 123.949 170.467 122.568 170.467C121.187 170.467 120.068 169.348 120.068 167.967C120.068 166.586 121.187 165.467 122.568 165.467C123.949 165.467 125.068 166.586 125.068 167.967Z" fill="url(#paint129_linear)"/>
<path d="M140.068 167.967C140.068 169.348 138.949 170.467 137.568 170.467C136.187 170.467 135.068 169.348 135.068 167.967C135.068 166.586 136.187 165.467 137.568 165.467C138.949 165.467 140.068 166.586 140.068 167.967Z" fill="url(#paint130_linear)"/>
<path d="M155.068 167.967C155.068 169.348 153.949 170.467 152.568 170.467C151.187 170.467 150.068 169.348 150.068 167.967C150.068 166.586 151.187 165.467 152.568 165.467C153.949 165.467 155.068 166.586 155.068 167.967Z" fill="url(#paint131_linear)"/>
<defs>
<linearGradient id="paint0_linear" x1="0.0681145" y1="12.5239" x2="166.972" y2="142.774" gradientUnits="userSpaceOnUse">
<stop stop-color="#8CA1CB"/>
<stop offset="1" stop-color="#627594"/>
</linearGradient>
<linearGradient id="paint1_linear" x1="0.0681145" y1="12.5239" x2="166.972" y2="142.774" gradientUnits="userSpaceOnUse">
<stop stop-color="#8CA1CB"/>
<stop offset="1" stop-color="#627594"/>
</linearGradient>
<linearGradient id="paint2_linear" x1="0.0681145" y1="12.5239" x2="166.972" y2="142.774" gradientUnits="userSpaceOnUse">
<stop stop-color="#8CA1CB"/>
<stop offset="1" stop-color="#627594"/>
</linearGradient>
<linearGradient id="paint3_linear" x1="0.0681145" y1="12.5239" x2="166.972" y2="142.774" gradientUnits="userSpaceOnUse">
<stop stop-color="#8CA1CB"/>
<stop offset="1" stop-color="#627594"/>
</linearGradient>
<linearGradient id="paint4_linear" x1="0.0681145" y1="12.5239" x2="166.972" y2="142.774" gradientUnits="userSpaceOnUse">
<stop stop-color="#8CA1CB"/>
<stop offset="1" stop-color="#627594"/>
</linearGradient>
<linearGradient id="paint5_linear" x1="0.0681145" y1="12.5239" x2="166.972" y2="142.774" gradientUnits="userSpaceOnUse">
<stop stop-color="#8CA1CB"/>
<stop offset="1" stop-color="#627594"/>
</linearGradient>
<linearGradient id="paint6_linear" x1="0.0681145" y1="12.5239" x2="166.972" y2="142.774" gradientUnits="userSpaceOnUse">
<stop stop-color="#8CA1CB"/>
<stop offset="1" stop-color="#627594"/>
</linearGradient>
<linearGradient id="paint7_linear" x1="0.0681145" y1="12.5239" x2="166.972" y2="142.774" gradientUnits="userSpaceOnUse">
<stop stop-color="#8CA1CB"/>
<stop offset="1" stop-color="#627594"/>
</linearGradient>
<linearGradient id="paint8_linear" x1="0.0681145" y1="12.5239" x2="166.972" y2="142.774" gradientUnits="userSpaceOnUse">
<stop stop-color="#8CA1CB"/>
<stop offset="1" stop-color="#627594"/>
</linearGradient>
<linearGradient id="paint9_linear" x1="0.0681145" y1="12.5239" x2="166.972" y2="142.774" gradientUnits="userSpaceOnUse">
<stop stop-color="#8CA1CB"/>
<stop offset="1" stop-color="#627594"/>
</linearGradient>
<linearGradient id="paint10_linear" x1="0.0681145" y1="12.5239" x2="166.972" y2="142.774" gradientUnits="userSpaceOnUse">
<stop stop-color="#8CA1CB"/>
<stop offset="1" stop-color="#627594"/>
</linearGradient>
<linearGradient id="paint11_linear" x1="0.0681145" y1="12.5239" x2="166.972" y2="142.774" gradientUnits="userSpaceOnUse">
<stop stop-color="#8CA1CB"/>
<stop offset="1" stop-color="#627594"/>
</linearGradient>
<linearGradient id="paint12_linear" x1="0.0681145" y1="12.5239" x2="166.972" y2="142.774" gradientUnits="userSpaceOnUse">
<stop stop-color="#8CA1CB"/>
<stop offset="1" stop-color="#627594"/>
</linearGradient>
<linearGradient id="paint13_linear" x1="0.0681145" y1="12.5239" x2="166.972" y2="142.774" gradientUnits="userSpaceOnUse">
<stop stop-color="#8CA1CB"/>
<stop offset="1" stop-color="#627594"/>
</linearGradient>
<linearGradient id="paint14_linear" x1="0.0681145" y1="12.5239" x2="166.972" y2="142.774" gradientUnits="userSpaceOnUse">
<stop stop-color="#8CA1CB"/>
<stop offset="1" stop-color="#627594"/>
</linearGradient>
<linearGradient id="paint15_linear" x1="0.0681145" y1="12.5239" x2="166.972" y2="142.774" gradientUnits="userSpaceOnUse">
<stop stop-color="#8CA1CB"/>
<stop offset="1" stop-color="#627594"/>
</linearGradient>
<linearGradient id="paint16_linear" x1="0.0681145" y1="12.5239" x2="166.972" y2="142.774" gradientUnits="userSpaceOnUse">
<stop stop-color="#8CA1CB"/>
<stop offset="1" stop-color="#627594"/>
</linearGradient>
<linearGradient id="paint17_linear" x1="0.0681145" y1="12.5239" x2="166.972" y2="142.774" gradientUnits="userSpaceOnUse">
<stop stop-color="#8CA1CB"/>
<stop offset="1" stop-color="#627594"/>
</linearGradient>
<linearGradient id="paint18_linear" x1="0.0681145" y1="12.5239" x2="166.972" y2="142.774" gradientUnits="userSpaceOnUse">
<stop stop-color="#8CA1CB"/>
<stop offset="1" stop-color="#627594"/>
</linearGradient>
<linearGradient id="paint19_linear" x1="0.0681145" y1="12.5239" x2="166.972" y2="142.774" gradientUnits="userSpaceOnUse">
<stop stop-color="#8CA1CB"/>
<stop offset="1" stop-color="#627594"/>
</linearGradient>
<linearGradient id="paint20_linear" x1="0.0681145" y1="12.5239" x2="166.972" y2="142.774" gradientUnits="userSpaceOnUse">
<stop stop-color="#8CA1CB"/>
<stop offset="1" stop-color="#627594"/>
</linearGradient>
<linearGradient id="paint21_linear" x1="0.0681145" y1="12.5239" x2="166.972" y2="142.774" gradientUnits="userSpaceOnUse">
<stop stop-color="#8CA1CB"/>
<stop offset="1" stop-color="#627594"/>
</linearGradient>
<linearGradient id="paint22_linear" x1="0.0681145" y1="12.5239" x2="166.972" y2="142.774" gradientUnits="userSpaceOnUse">
<stop stop-color="#8CA1CB"/>
<stop offset="1" stop-color="#627594"/>
</linearGradient>
<linearGradient id="paint23_linear" x1="0.0681145" y1="12.5239" x2="166.972" y2="142.774" gradientUnits="userSpaceOnUse">
<stop stop-color="#8CA1CB"/>
<stop offset="1" stop-color="#627594"/>
</linearGradient>
<linearGradient id="paint24_linear" x1="0.0681145" y1="12.5239" x2="166.972" y2="142.774" gradientUnits="userSpaceOnUse">
<stop stop-color="#8CA1CB"/>
<stop offset="1" stop-color="#627594"/>
</linearGradient>
<linearGradient id="paint25_linear" x1="0.0681145" y1="12.5239" x2="166.972" y2="142.774" gradientUnits="userSpaceOnUse">
<stop stop-color="#8CA1CB"/>
<stop offset="1" stop-color="#627594"/>
</linearGradient>
<linearGradient id="paint26_linear" x1="0.0681145" y1="12.5239" x2="166.972" y2="142.774" gradientUnits="userSpaceOnUse">
<stop stop-color="#8CA1CB"/>
<stop offset="1" stop-color="#627594"/>
</linearGradient>
<linearGradient id="paint27_linear" x1="0.0681145" y1="12.5239" x2="166.972" y2="142.774" gradientUnits="userSpaceOnUse">
<stop stop-color="#8CA1CB"/>
<stop offset="1" stop-color="#627594"/>
</linearGradient>
<linearGradient id="paint28_linear" x1="0.0681145" y1="12.5239" x2="166.972" y2="142.774" gradientUnits="userSpaceOnUse">
<stop stop-color="#8CA1CB"/>
<stop offset="1" stop-color="#627594"/>
</linearGradient>
<linearGradient id="paint29_linear" x1="0.0681145" y1="12.5239" x2="166.972" y2="142.774" gradientUnits="userSpaceOnUse">
<stop stop-color="#8CA1CB"/>
<stop offset="1" stop-color="#627594"/>
</linearGradient>
<linearGradient id="paint30_linear" x1="0.0681145" y1="12.5239" x2="166.972" y2="142.774" gradientUnits="userSpaceOnUse">
<stop stop-color="#8CA1CB"/>
<stop offset="1" stop-color="#627594"/>
</linearGradient>
<linearGradient id="paint31_linear" x1="0.0681145" y1="12.5239" x2="166.972" y2="142.774" gradientUnits="userSpaceOnUse">
<stop stop-color="#8CA1CB"/>
<stop offset="1" stop-color="#627594"/>
</linearGradient>
<linearGradient id="paint32_linear" x1="0.0681145" y1="12.5239" x2="166.972" y2="142.774" gradientUnits="userSpaceOnUse">
<stop stop-color="#8CA1CB"/>
<stop offset="1" stop-color="#627594"/>
</linearGradient>
<linearGradient id="paint33_linear" x1="0.0681145" y1="12.5239" x2="166.972" y2="142.774" gradientUnits="userSpaceOnUse">
<stop stop-color="#8CA1CB"/>
<stop offset="1" stop-color="#627594"/>
</linearGradient>
<linearGradient id="paint34_linear" x1="0.0681145" y1="12.5239" x2="166.972" y2="142.774" gradientUnits="userSpaceOnUse">
<stop stop-color="#8CA1CB"/>
<stop offset="1" stop-color="#627594"/>
</linearGradient>
<linearGradient id="paint35_linear" x1="0.0681145" y1="12.5239" x2="166.972" y2="142.774" gradientUnits="userSpaceOnUse">
<stop stop-color="#8CA1CB"/>
<stop offset="1" stop-color="#627594"/>
</linearGradient>
<linearGradient id="paint36_linear" x1="0.0681145" y1="12.5239" x2="166.972" y2="142.774" gradientUnits="userSpaceOnUse">
<stop stop-color="#8CA1CB"/>
<stop offset="1" stop-color="#627594"/>
</linearGradient>
<linearGradient id="paint37_linear" x1="0.0681145" y1="12.5239" x2="166.972" y2="142.774" gradientUnits="userSpaceOnUse">
<stop stop-color="#8CA1CB"/>
<stop offset="1" stop-color="#627594"/>
</linearGradient>
<linearGradient id="paint38_linear" x1="0.0681145" y1="12.5239" x2="166.972" y2="142.774" gradientUnits="userSpaceOnUse">
<stop stop-color="#8CA1CB"/>
<stop offset="1" stop-color="#627594"/>
</linearGradient>
<linearGradient id="paint39_linear" x1="0.0681145" y1="12.5239" x2="166.972" y2="142.774" gradientUnits="userSpaceOnUse">
<stop stop-color="#8CA1CB"/>
<stop offset="1" stop-color="#627594"/>
</linearGradient>
<linearGradient id="paint40_linear" x1="0.0681145" y1="12.5239" x2="166.972" y2="142.774" gradientUnits="userSpaceOnUse">
<stop stop-color="#8CA1CB"/>
<stop offset="1" stop-color="#627594"/>
</linearGradient>
<linearGradient id="paint41_linear" x1="0.0681145" y1="12.5239" x2="166.972" y2="142.774" gradientUnits="userSpaceOnUse">
<stop stop-color="#8CA1CB"/>
<stop offset="1" stop-color="#627594"/>
</linearGradient>
<linearGradient id="paint42_linear" x1="0.0681145" y1="12.5239" x2="166.972" y2="142.774" gradientUnits="userSpaceOnUse">
<stop stop-color="#8CA1CB"/>
<stop offset="1" stop-color="#627594"/>
</linearGradient>
<linearGradient id="paint43_linear" x1="0.0681145" y1="12.5239" x2="166.972" y2="142.774" gradientUnits="userSpaceOnUse">
<stop stop-color="#8CA1CB"/>
<stop offset="1" stop-color="#627594"/>
</linearGradient>
<linearGradient id="paint44_linear" x1="0.0681145" y1="12.5239" x2="166.972" y2="142.774" gradientUnits="userSpaceOnUse">
<stop stop-color="#8CA1CB"/>
<stop offset="1" stop-color="#627594"/>
</linearGradient>
<linearGradient id="paint45_linear" x1="0.0681145" y1="12.5239" x2="166.972" y2="142.774" gradientUnits="userSpaceOnUse">
<stop stop-color="#8CA1CB"/>
<stop offset="1" stop-color="#627594"/>
</linearGradient>
<linearGradient id="paint46_linear" x1="0.0681145" y1="12.5239" x2="166.972" y2="142.774" gradientUnits="userSpaceOnUse">
<stop stop-color="#8CA1CB"/>
<stop offset="1" stop-color="#627594"/>
</linearGradient>
<linearGradient id="paint47_linear" x1="0.0681145" y1="12.5239" x2="166.972" y2="142.774" gradientUnits="userSpaceOnUse">
<stop stop-color="#8CA1CB"/>
<stop offset="1" stop-color="#627594"/>
</linearGradient>
<linearGradient id="paint48_linear" x1="0.0681145" y1="12.5239" x2="166.972" y2="142.774" gradientUnits="userSpaceOnUse">
<stop stop-color="#8CA1CB"/>
<stop offset="1" stop-color="#627594"/>
</linearGradient>
<linearGradient id="paint49_linear" x1="0.0681145" y1="12.5239" x2="166.972" y2="142.774" gradientUnits="userSpaceOnUse">
<stop stop-color="#8CA1CB"/>
<stop offset="1" stop-color="#627594"/>
</linearGradient>
<linearGradient id="paint50_linear" x1="0.0681145" y1="12.5239" x2="166.972" y2="142.774" gradientUnits="userSpaceOnUse">
<stop stop-color="#8CA1CB"/>
<stop offset="1" stop-color="#627594"/>
</linearGradient>
<linearGradient id="paint51_linear" x1="0.0681145" y1="12.5239" x2="166.972" y2="142.774" gradientUnits="userSpaceOnUse">
<stop stop-color="#8CA1CB"/>
<stop offset="1" stop-color="#627594"/>
</linearGradient>
<linearGradient id="paint52_linear" x1="0.0681145" y1="12.5239" x2="166.972" y2="142.774" gradientUnits="userSpaceOnUse">
<stop stop-color="#8CA1CB"/>
<stop offset="1" stop-color="#627594"/>
</linearGradient>
<linearGradient id="paint53_linear" x1="0.0681145" y1="12.5239" x2="166.972" y2="142.774" gradientUnits="userSpaceOnUse">
<stop stop-color="#8CA1CB"/>
<stop offset="1" stop-color="#627594"/>
</linearGradient>
<linearGradient id="paint54_linear" x1="0.0681145" y1="12.5239" x2="166.972" y2="142.774" gradientUnits="userSpaceOnUse">
<stop stop-color="#8CA1CB"/>
<stop offset="1" stop-color="#627594"/>
</linearGradient>
<linearGradient id="paint55_linear" x1="0.0681145" y1="12.5239" x2="166.972" y2="142.774" gradientUnits="userSpaceOnUse">
<stop stop-color="#8CA1CB"/>
<stop offset="1" stop-color="#627594"/>
</linearGradient>
<linearGradient id="paint56_linear" x1="0.0681145" y1="12.5239" x2="166.972" y2="142.774" gradientUnits="userSpaceOnUse">
<stop stop-color="#8CA1CB"/>
<stop offset="1" stop-color="#627594"/>
</linearGradient>
<linearGradient id="paint57_linear" x1="0.0681145" y1="12.5239" x2="166.972" y2="142.774" gradientUnits="userSpaceOnUse">
<stop stop-color="#8CA1CB"/>
<stop offset="1" stop-color="#627594"/>
</linearGradient>
<linearGradient id="paint58_linear" x1="0.0681145" y1="12.5239" x2="166.972" y2="142.774" gradientUnits="userSpaceOnUse">
<stop stop-color="#8CA1CB"/>
<stop offset="1" stop-color="#627594"/>
</linearGradient>
<linearGradient id="paint59_linear" x1="0.0681145" y1="12.5239" x2="166.972" y2="142.774" gradientUnits="userSpaceOnUse">
<stop stop-color="#8CA1CB"/>
<stop offset="1" stop-color="#627594"/>
</linearGradient>
<linearGradient id="paint60_linear" x1="0.0681145" y1="12.5239" x2="166.972" y2="142.774" gradientUnits="userSpaceOnUse">
<stop stop-color="#8CA1CB"/>
<stop offset="1" stop-color="#627594"/>
</linearGradient>
<linearGradient id="paint61_linear" x1="0.0681145" y1="12.5239" x2="166.972" y2="142.774" gradientUnits="userSpaceOnUse">
<stop stop-color="#8CA1CB"/>
<stop offset="1" stop-color="#627594"/>
</linearGradient>
<linearGradient id="paint62_linear" x1="0.0681145" y1="12.5239" x2="166.972" y2="142.774" gradientUnits="userSpaceOnUse">
<stop stop-color="#8CA1CB"/>
<stop offset="1" stop-color="#627594"/>
</linearGradient>
<linearGradient id="paint63_linear" x1="0.0681145" y1="12.5239" x2="166.972" y2="142.774" gradientUnits="userSpaceOnUse">
<stop stop-color="#8CA1CB"/>
<stop offset="1" stop-color="#627594"/>
</linearGradient>
<linearGradient id="paint64_linear" x1="0.0681145" y1="12.5239" x2="166.972" y2="142.774" gradientUnits="userSpaceOnUse">
<stop stop-color="#8CA1CB"/>
<stop offset="1" stop-color="#627594"/>
</linearGradient>
<linearGradient id="paint65_linear" x1="0.0681145" y1="12.5239" x2="166.972" y2="142.774" gradientUnits="userSpaceOnUse">
<stop stop-color="#8CA1CB"/>
<stop offset="1" stop-color="#627594"/>
</linearGradient>
<linearGradient id="paint66_linear" x1="0.0681145" y1="12.5239" x2="166.972" y2="142.774" gradientUnits="userSpaceOnUse">
<stop stop-color="#8CA1CB"/>
<stop offset="1" stop-color="#627594"/>
</linearGradient>
<linearGradient id="paint67_linear" x1="0.0681145" y1="12.5239" x2="166.972" y2="142.774" gradientUnits="userSpaceOnUse">
<stop stop-color="#8CA1CB"/>
<stop offset="1" stop-color="#627594"/>
</linearGradient>
<linearGradient id="paint68_linear" x1="0.0681145" y1="12.5239" x2="166.972" y2="142.774" gradientUnits="userSpaceOnUse">
<stop stop-color="#8CA1CB"/>
<stop offset="1" stop-color="#627594"/>
</linearGradient>
<linearGradient id="paint69_linear" x1="0.0681145" y1="12.5239" x2="166.972" y2="142.774" gradientUnits="userSpaceOnUse">
<stop stop-color="#8CA1CB"/>
<stop offset="1" stop-color="#627594"/>
</linearGradient>
<linearGradient id="paint70_linear" x1="0.0681145" y1="12.5239" x2="166.972" y2="142.774" gradientUnits="userSpaceOnUse">
<stop stop-color="#8CA1CB"/>
<stop offset="1" stop-color="#627594"/>
</linearGradient>
<linearGradient id="paint71_linear" x1="0.0681145" y1="12.5239" x2="166.972" y2="142.774" gradientUnits="userSpaceOnUse">
<stop stop-color="#8CA1CB"/>
<stop offset="1" stop-color="#627594"/>
</linearGradient>
<linearGradient id="paint72_linear" x1="0.0681145" y1="12.5239" x2="166.972" y2="142.774" gradientUnits="userSpaceOnUse">
<stop stop-color="#8CA1CB"/>
<stop offset="1" stop-color="#627594"/>
</linearGradient>
<linearGradient id="paint73_linear" x1="0.0681145" y1="12.5239" x2="166.972" y2="142.774" gradientUnits="userSpaceOnUse">
<stop stop-color="#8CA1CB"/>
<stop offset="1" stop-color="#627594"/>
</linearGradient>
<linearGradient id="paint74_linear" x1="0.0681145" y1="12.5239" x2="166.972" y2="142.774" gradientUnits="userSpaceOnUse">
<stop stop-color="#8CA1CB"/>
<stop offset="1" stop-color="#627594"/>
</linearGradient>
<linearGradient id="paint75_linear" x1="0.0681145" y1="12.5239" x2="166.972" y2="142.774" gradientUnits="userSpaceOnUse">
<stop stop-color="#8CA1CB"/>
<stop offset="1" stop-color="#627594"/>
</linearGradient>
<linearGradient id="paint76_linear" x1="0.0681145" y1="12.5239" x2="166.972" y2="142.774" gradientUnits="userSpaceOnUse">
<stop stop-color="#8CA1CB"/>
<stop offset="1" stop-color="#627594"/>
</linearGradient>
<linearGradient id="paint77_linear" x1="0.0681145" y1="12.5239" x2="166.972" y2="142.774" gradientUnits="userSpaceOnUse">
<stop stop-color="#8CA1CB"/>
<stop offset="1" stop-color="#627594"/>
</linearGradient>
<linearGradient id="paint78_linear" x1="0.0681145" y1="12.5239" x2="166.972" y2="142.774" gradientUnits="userSpaceOnUse">
<stop stop-color="#8CA1CB"/>
<stop offset="1" stop-color="#627594"/>
</linearGradient>
<linearGradient id="paint79_linear" x1="0.0681145" y1="12.5239" x2="166.972" y2="142.774" gradientUnits="userSpaceOnUse">
<stop stop-color="#8CA1CB"/>
<stop offset="1" stop-color="#627594"/>
</linearGradient>
<linearGradient id="paint80_linear" x1="0.0681145" y1="12.5239" x2="166.972" y2="142.774" gradientUnits="userSpaceOnUse">
<stop stop-color="#8CA1CB"/>
<stop offset="1" stop-color="#627594"/>
</linearGradient>
<linearGradient id="paint81_linear" x1="0.0681145" y1="12.5239" x2="166.972" y2="142.774" gradientUnits="userSpaceOnUse">
<stop stop-color="#8CA1CB"/>
<stop offset="1" stop-color="#627594"/>
</linearGradient>
<linearGradient id="paint82_linear" x1="0.0681145" y1="12.5239" x2="166.972" y2="142.774" gradientUnits="userSpaceOnUse">
<stop stop-color="#8CA1CB"/>
<stop offset="1" stop-color="#627594"/>
</linearGradient>
<linearGradient id="paint83_linear" x1="0.0681145" y1="12.5239" x2="166.972" y2="142.774" gradientUnits="userSpaceOnUse">
<stop stop-color="#8CA1CB"/>
<stop offset="1" stop-color="#627594"/>
</linearGradient>
<linearGradient id="paint84_linear" x1="0.0681145" y1="12.5239" x2="166.972" y2="142.774" gradientUnits="userSpaceOnUse">
<stop stop-color="#8CA1CB"/>
<stop offset="1" stop-color="#627594"/>
</linearGradient>
<linearGradient id="paint85_linear" x1="0.0681145" y1="12.5239" x2="166.972" y2="142.774" gradientUnits="userSpaceOnUse">
<stop stop-color="#8CA1CB"/>
<stop offset="1" stop-color="#627594"/>
</linearGradient>
<linearGradient id="paint86_linear" x1="0.0681145" y1="12.5239" x2="166.972" y2="142.774" gradientUnits="userSpaceOnUse">
<stop stop-color="#8CA1CB"/>
<stop offset="1" stop-color="#627594"/>
</linearGradient>
<linearGradient id="paint87_linear" x1="0.0681145" y1="12.5239" x2="166.972" y2="142.774" gradientUnits="userSpaceOnUse">
<stop stop-color="#8CA1CB"/>
<stop offset="1" stop-color="#627594"/>
</linearGradient>
<linearGradient id="paint88_linear" x1="0.0681145" y1="12.5239" x2="166.972" y2="142.774" gradientUnits="userSpaceOnUse">
<stop stop-color="#8CA1CB"/>
<stop offset="1" stop-color="#627594"/>
</linearGradient>
<linearGradient id="paint89_linear" x1="0.0681145" y1="12.5239" x2="166.972" y2="142.774" gradientUnits="userSpaceOnUse">
<stop stop-color="#8CA1CB"/>
<stop offset="1" stop-color="#627594"/>
</linearGradient>
<linearGradient id="paint90_linear" x1="0.0681145" y1="12.5239" x2="166.972" y2="142.774" gradientUnits="userSpaceOnUse">
<stop stop-color="#8CA1CB"/>
<stop offset="1" stop-color="#627594"/>
</linearGradient>
<linearGradient id="paint91_linear" x1="0.0681145" y1="12.5239" x2="166.972" y2="142.774" gradientUnits="userSpaceOnUse">
<stop stop-color="#8CA1CB"/>
<stop offset="1" stop-color="#627594"/>
</linearGradient>
<linearGradient id="paint92_linear" x1="0.0681145" y1="12.5239" x2="166.972" y2="142.774" gradientUnits="userSpaceOnUse">
<stop stop-color="#8CA1CB"/>
<stop offset="1" stop-color="#627594"/>
</linearGradient>
<linearGradient id="paint93_linear" x1="0.0681145" y1="12.5239" x2="166.972" y2="142.774" gradientUnits="userSpaceOnUse">
<stop stop-color="#8CA1CB"/>
<stop offset="1" stop-color="#627594"/>
</linearGradient>
<linearGradient id="paint94_linear" x1="0.0681145" y1="12.5239" x2="166.972" y2="142.774" gradientUnits="userSpaceOnUse">
<stop stop-color="#8CA1CB"/>
<stop offset="1" stop-color="#627594"/>
</linearGradient>
<linearGradient id="paint95_linear" x1="0.0681145" y1="12.5239" x2="166.972" y2="142.774" gradientUnits="userSpaceOnUse">
<stop stop-color="#8CA1CB"/>
<stop offset="1" stop-color="#627594"/>
</linearGradient>
<linearGradient id="paint96_linear" x1="0.0681145" y1="12.5239" x2="166.972" y2="142.774" gradientUnits="userSpaceOnUse">
<stop stop-color="#8CA1CB"/>
<stop offset="1" stop-color="#627594"/>
</linearGradient>
<linearGradient id="paint97_linear" x1="0.0681145" y1="12.5239" x2="166.972" y2="142.774" gradientUnits="userSpaceOnUse">
<stop stop-color="#8CA1CB"/>
<stop offset="1" stop-color="#627594"/>
</linearGradient>
<linearGradient id="paint98_linear" x1="0.0681145" y1="12.5239" x2="166.972" y2="142.774" gradientUnits="userSpaceOnUse">
<stop stop-color="#8CA1CB"/>
<stop offset="1" stop-color="#627594"/>
</linearGradient>
<linearGradient id="paint99_linear" x1="0.0681145" y1="12.5239" x2="166.972" y2="142.774" gradientUnits="userSpaceOnUse">
<stop stop-color="#8CA1CB"/>
<stop offset="1" stop-color="#627594"/>
</linearGradient>
<linearGradient id="paint100_linear" x1="0.0681145" y1="12.5239" x2="166.972" y2="142.774" gradientUnits="userSpaceOnUse">
<stop stop-color="#8CA1CB"/>
<stop offset="1" stop-color="#627594"/>
</linearGradient>
<linearGradient id="paint101_linear" x1="0.0681145" y1="12.5239" x2="166.972" y2="142.774" gradientUnits="userSpaceOnUse">
<stop stop-color="#8CA1CB"/>
<stop offset="1" stop-color="#627594"/>
</linearGradient>
<linearGradient id="paint102_linear" x1="0.0681145" y1="12.5239" x2="166.972" y2="142.774" gradientUnits="userSpaceOnUse">
<stop stop-color="#8CA1CB"/>
<stop offset="1" stop-color="#627594"/>
</linearGradient>
<linearGradient id="paint103_linear" x1="0.0681145" y1="12.5239" x2="166.972" y2="142.774" gradientUnits="userSpaceOnUse">
<stop stop-color="#8CA1CB"/>
<stop offset="1" stop-color="#627594"/>
</linearGradient>
<linearGradient id="paint104_linear" x1="0.0681145" y1="12.5239" x2="166.972" y2="142.774" gradientUnits="userSpaceOnUse">
<stop stop-color="#8CA1CB"/>
<stop offset="1" stop-color="#627594"/>
</linearGradient>
<linearGradient id="paint105_linear" x1="0.0681145" y1="12.5239" x2="166.972" y2="142.774" gradientUnits="userSpaceOnUse">
<stop stop-color="#8CA1CB"/>
<stop offset="1" stop-color="#627594"/>
</linearGradient>
<linearGradient id="paint106_linear" x1="0.0681145" y1="12.5239" x2="166.972" y2="142.774" gradientUnits="userSpaceOnUse">
<stop stop-color="#8CA1CB"/>
<stop offset="1" stop-color="#627594"/>
</linearGradient>
<linearGradient id="paint107_linear" x1="0.0681145" y1="12.5239" x2="166.972" y2="142.774" gradientUnits="userSpaceOnUse">
<stop stop-color="#8CA1CB"/>
<stop offset="1" stop-color="#627594"/>
</linearGradient>
<linearGradient id="paint108_linear" x1="0.0681145" y1="12.5239" x2="166.972" y2="142.774" gradientUnits="userSpaceOnUse">
<stop stop-color="#8CA1CB"/>
<stop offset="1" stop-color="#627594"/>
</linearGradient>
<linearGradient id="paint109_linear" x1="0.0681145" y1="12.5239" x2="166.972" y2="142.774" gradientUnits="userSpaceOnUse">
<stop stop-color="#8CA1CB"/>
<stop offset="1" stop-color="#627594"/>
</linearGradient>
<linearGradient id="paint110_linear" x1="0.0681145" y1="12.5239" x2="166.972" y2="142.774" gradientUnits="userSpaceOnUse">
<stop stop-color="#8CA1CB"/>
<stop offset="1" stop-color="#627594"/>
</linearGradient>
<linearGradient id="paint111_linear" x1="0.0681145" y1="12.5239" x2="166.972" y2="142.774" gradientUnits="userSpaceOnUse">
<stop stop-color="#8CA1CB"/>
<stop offset="1" stop-color="#627594"/>
</linearGradient>
<linearGradient id="paint112_linear" x1="0.0681145" y1="12.5239" x2="166.972" y2="142.774" gradientUnits="userSpaceOnUse">
<stop stop-color="#8CA1CB"/>
<stop offset="1" stop-color="#627594"/>
</linearGradient>
<linearGradient id="paint113_linear" x1="0.0681145" y1="12.5239" x2="166.972" y2="142.774" gradientUnits="userSpaceOnUse">
<stop stop-color="#8CA1CB"/>
<stop offset="1" stop-color="#627594"/>
</linearGradient>
<linearGradient id="paint114_linear" x1="0.0681145" y1="12.5239" x2="166.972" y2="142.774" gradientUnits="userSpaceOnUse">
<stop stop-color="#8CA1CB"/>
<stop offset="1" stop-color="#627594"/>
</linearGradient>
<linearGradient id="paint115_linear" x1="0.0681145" y1="12.5239" x2="166.972" y2="142.774" gradientUnits="userSpaceOnUse">
<stop stop-color="#8CA1CB"/>
<stop offset="1" stop-color="#627594"/>
</linearGradient>
<linearGradient id="paint116_linear" x1="0.0681145" y1="12.5239" x2="166.972" y2="142.774" gradientUnits="userSpaceOnUse">
<stop stop-color="#8CA1CB"/>
<stop offset="1" stop-color="#627594"/>
</linearGradient>
<linearGradient id="paint117_linear" x1="0.0681145" y1="12.5239" x2="166.972" y2="142.774" gradientUnits="userSpaceOnUse">
<stop stop-color="#8CA1CB"/>
<stop offset="1" stop-color="#627594"/>
</linearGradient>
<linearGradient id="paint118_linear" x1="0.0681145" y1="12.5239" x2="166.972" y2="142.774" gradientUnits="userSpaceOnUse">
<stop stop-color="#8CA1CB"/>
<stop offset="1" stop-color="#627594"/>
</linearGradient>
<linearGradient id="paint119_linear" x1="0.0681145" y1="12.5239" x2="166.972" y2="142.774" gradientUnits="userSpaceOnUse">
<stop stop-color="#8CA1CB"/>
<stop offset="1" stop-color="#627594"/>
</linearGradient>
<linearGradient id="paint120_linear" x1="0.0681145" y1="12.5239" x2="166.972" y2="142.774" gradientUnits="userSpaceOnUse">
<stop stop-color="#8CA1CB"/>
<stop offset="1" stop-color="#627594"/>
</linearGradient>
<linearGradient id="paint121_linear" x1="0.0681145" y1="12.5239" x2="166.972" y2="142.774" gradientUnits="userSpaceOnUse">
<stop stop-color="#8CA1CB"/>
<stop offset="1" stop-color="#627594"/>
</linearGradient>
<linearGradient id="paint122_linear" x1="0.0681145" y1="12.5239" x2="166.972" y2="142.774" gradientUnits="userSpaceOnUse">
<stop stop-color="#8CA1CB"/>
<stop offset="1" stop-color="#627594"/>
</linearGradient>
<linearGradient id="paint123_linear" x1="0.0681145" y1="12.5239" x2="166.972" y2="142.774" gradientUnits="userSpaceOnUse">
<stop stop-color="#8CA1CB"/>
<stop offset="1" stop-color="#627594"/>
</linearGradient>
<linearGradient id="paint124_linear" x1="0.0681145" y1="12.5239" x2="166.972" y2="142.774" gradientUnits="userSpaceOnUse">
<stop stop-color="#8CA1CB"/>
<stop offset="1" stop-color="#627594"/>
</linearGradient>
<linearGradient id="paint125_linear" x1="0.0681145" y1="12.5239" x2="166.972" y2="142.774" gradientUnits="userSpaceOnUse">
<stop stop-color="#8CA1CB"/>
<stop offset="1" stop-color="#627594"/>
</linearGradient>
<linearGradient id="paint126_linear" x1="0.0681145" y1="12.5239" x2="166.972" y2="142.774" gradientUnits="userSpaceOnUse">
<stop stop-color="#8CA1CB"/>
<stop offset="1" stop-color="#627594"/>
</linearGradient>
<linearGradient id="paint127_linear" x1="0.0681145" y1="12.5239" x2="166.972" y2="142.774" gradientUnits="userSpaceOnUse">
<stop stop-color="#8CA1CB"/>
<stop offset="1" stop-color="#627594"/>
</linearGradient>
<linearGradient id="paint128_linear" x1="0.0681145" y1="12.5239" x2="166.972" y2="142.774" gradientUnits="userSpaceOnUse">
<stop stop-color="#8CA1CB"/>
<stop offset="1" stop-color="#627594"/>
</linearGradient>
<linearGradient id="paint129_linear" x1="0.0681145" y1="12.5239" x2="166.972" y2="142.774" gradientUnits="userSpaceOnUse">
<stop stop-color="#8CA1CB"/>
<stop offset="1" stop-color="#627594"/>
</linearGradient>
<linearGradient id="paint130_linear" x1="0.0681145" y1="12.5239" x2="166.972" y2="142.774" gradientUnits="userSpaceOnUse">
<stop stop-color="#8CA1CB"/>
<stop offset="1" stop-color="#627594"/>
</linearGradient>
<linearGradient id="paint131_linear" x1="0.0681145" y1="12.5239" x2="166.972" y2="142.774" gradientUnits="userSpaceOnUse">
<stop stop-color="#8CA1CB"/>
<stop offset="1" stop-color="#627594"/>
</linearGradient>
</defs>
</svg>
